<?xml version="1.0" encoding="UTF-8"?>
<svg fill="white" width="700pt" height="700pt" version="1.1" viewBox="0 0 700 700" xmlns="http://www.w3.org/2000/svg">
 <g>
  <path d="m291.73 397.85 64 63.996c4.1016 4.1016 9.6641 6.4062 15.469 6.4062 5.8008 0 11.363-2.3047 15.465-6.4062l306.93-306.92c8.543-8.543 8.543-22.395 0-30.938s-22.395-8.543-30.938 0l-291.45 291.46-48.531-48.531z"/>
  <path d="m37.344 284.26c-8.543-8.543-22.395-8.543-30.938 0s-8.543 22.395 0 30.938l146.64 146.64c4.1055 4.1016 9.668 6.4062 15.469 6.4062s11.367-2.3047 15.469-6.4062l306.93-306.92c8.5391-8.543 8.5391-22.395 0-30.938-8.5469-8.543-22.395-8.543-30.941 0l-291.45 291.46z"/>
 </g>
</svg>
